<svg width="16" height="16" viewBox="0 0 16 16" fill="none" xmlns="http://www.w3.org/2000/svg">
<g clip-path="url(#clip0_64_42098)">
<path d="M8.00018 15.25C12.0042 15.25 15.2502 12.0041 15.2502 8C15.2502 3.99594 12.0042 0.75 8.00018 0.75C3.99612 0.75 0.750183 3.99594 0.750183 8C0.750183 12.0041 3.99612 15.25 8.00018 15.25Z" fill="#EEEEEE"/>
<path d="M8 5.25C7.9337 5.25 7.87011 5.22366 7.82322 5.17678C7.77634 5.12989 7.75 5.0663 7.75 5V2.5C7.75 2.4337 7.77634 2.37011 7.82322 2.32322C7.87011 2.27634 7.9337 2.25 8 2.25C8.0663 2.25 8.12989 2.27634 8.17678 2.32322C8.22366 2.37011 8.25 2.4337 8.25 2.5V5C8.25 5.0663 8.22366 5.12989 8.17678 5.17678C8.12989 5.22366 8.0663 5.25 8 5.25Z" fill="#E0E0E0"/>
<path d="M11.2628 12.7409C11.2233 12.741 11.1843 12.7316 11.1491 12.7137C11.1139 12.6958 11.0834 12.6697 11.0602 12.6378L9.474 10.4511C9.43505 10.3974 9.41902 10.3305 9.42943 10.265C9.43985 10.1995 9.47586 10.1408 9.52953 10.1019C9.58321 10.0629 9.65016 10.0469 9.71565 10.0573C9.78115 10.0677 9.83982 10.1037 9.87877 10.1574L11.465 12.3441C11.4921 12.3813 11.5083 12.4254 11.5119 12.4713C11.5155 12.5173 11.5064 12.5633 11.4854 12.6044C11.4645 12.6454 11.4327 12.6799 11.3934 12.704C11.3541 12.7281 11.3089 12.7409 11.2628 12.7409Z" fill="#E0E0E0"/>
<path d="M10.5203 7.50112C10.4613 7.50121 10.4041 7.48039 10.3589 7.44236C10.3138 7.40434 10.2835 7.35155 10.2736 7.29336C10.2636 7.23516 10.2745 7.17531 10.3044 7.12442C10.3344 7.07352 10.3813 7.03485 10.437 7.01527L13.4018 5.96817C13.4328 5.95678 13.4658 5.95166 13.4989 5.95312C13.5319 5.95459 13.5644 5.96259 13.5943 5.97668C13.6242 5.99077 13.6511 6.01066 13.6733 6.03519C13.6955 6.05973 13.7126 6.08843 13.7236 6.11963C13.7346 6.15082 13.7393 6.18389 13.7375 6.21692C13.7356 6.24995 13.7272 6.28229 13.7128 6.31205C13.6983 6.34181 13.6781 6.36841 13.6533 6.39031C13.6285 6.4122 13.5996 6.42895 13.5683 6.4396L10.6036 7.48672C10.5768 7.49623 10.5487 7.5011 10.5203 7.50112Z" fill="#E0E0E0"/>
<path d="M4.73722 12.7409C4.69113 12.7409 4.64596 12.7281 4.60667 12.704C4.56739 12.6799 4.53553 12.6454 4.51461 12.6044C4.49369 12.5633 4.48453 12.5173 4.48813 12.4713C4.49174 12.4254 4.50797 12.3813 4.53504 12.3441L6.12124 10.1574C6.16019 10.1037 6.21886 10.0677 6.28436 10.0573C6.34985 10.0469 6.4168 10.0629 6.47048 10.1019C6.52416 10.1408 6.56016 10.1995 6.57058 10.265C6.58099 10.3305 6.56496 10.3974 6.52602 10.4511L4.93984 12.6378C4.91663 12.6697 4.88616 12.6958 4.85093 12.7137C4.81571 12.7316 4.77674 12.7409 4.73722 12.7409Z" fill="#E0E0E0"/>
<path d="M5.47974 7.50112C5.45138 7.50109 5.42322 7.49622 5.39649 7.48672L2.43179 6.4396C2.40047 6.42895 2.37157 6.4122 2.34676 6.39031C2.32196 6.36841 2.30175 6.34181 2.2873 6.31205C2.27286 6.28229 2.26446 6.24995 2.2626 6.21692C2.26074 6.18389 2.26546 6.15082 2.27648 6.11963C2.2875 6.08843 2.3046 6.05973 2.32679 6.03519C2.34898 6.01066 2.37582 5.99077 2.40575 5.97668C2.43569 5.96259 2.46812 5.95459 2.50117 5.95312C2.53422 5.95166 2.56723 5.95678 2.59829 5.96817L5.56302 7.01527C5.61872 7.03485 5.66569 7.07352 5.69562 7.12442C5.72554 7.17531 5.73649 7.23516 5.72651 7.29336C5.71654 7.35155 5.68629 7.40434 5.64112 7.44236C5.59596 7.48039 5.53879 7.50121 5.47974 7.50112Z" fill="#E0E0E0"/>
<path d="M8 4.5L4.75 7L6 10.75H10L11.25 7L8 4.5Z" fill="#333333"/>
<path d="M8 0.75C7.78925 0.75 7.58117 0.760975 7.375 0.7786C9.18273 0.934632 10.8662 1.763 12.0928 3.10004C13.3194 4.43708 13.9999 6.18555 13.9999 8C13.9999 9.81445 13.3194 11.5629 12.0928 12.9C10.8662 14.237 9.18273 15.0654 7.375 15.2214C7.58117 15.239 7.78925 15.25 8 15.25C9.92282 15.25 11.7669 14.4862 13.1265 13.1265C14.4862 11.7669 15.25 9.92282 15.25 8C15.25 6.07718 14.4862 4.23311 13.1265 2.87348C11.7669 1.51384 9.92282 0.75 8 0.75Z" fill="#E0E0E0"/>
<path d="M2.04098 12.1278L5.06098 12.0451L5.91598 14.9445C4.3429 14.4709 2.97687 13.478 2.04098 12.1278ZM13.959 12.1278L10.939 12.0451L10.084 14.9445C11.6571 14.4709 13.0231 13.478 13.959 12.1278ZM2.23281 3.60817C1.26904 4.86923 0.747873 6.41283 0.750007 8C0.750007 8.05442 0.752932 8.10815 0.754107 8.16227L3.24473 6.455L2.23281 3.60817ZM5.60423 1.1571L8.00001 3L10.3958 1.1571C8.84472 0.6143 7.1553 0.6143 5.60423 1.1571ZM13.7672 3.60817L12.7553 6.455L15.2459 8.16237C15.2471 8.10815 15.25 8.05442 15.25 8C15.2521 6.41283 14.731 4.86923 13.7672 3.60817Z" fill="#333333"/>
<path d="M9.95467 1.49643L10.3958 1.1571C9.62587 0.887303 8.81585 0.749663 8.00002 0.750001C7.7866 0.750001 7.5755 0.759726 7.36682 0.777976C8.26685 0.853093 9.14473 1.09681 9.95467 1.49643Z" fill="#333333"/>
<path d="M13.7672 3.60815L13.3065 4.9042C13.6612 5.65362 13.8838 6.45866 13.9645 7.28383L15.2459 8.16225C15.2471 8.10813 15.25 8.0544 15.25 7.99998C15.2522 6.41281 14.731 4.86921 13.7672 3.60815Z" fill="#333333"/>
<path d="M10.2612 14.3431L10.0839 14.9446C11.657 14.471 13.0231 13.478 13.959 12.1278L12.7329 12.0942C12.0944 13.0253 11.2483 13.7952 10.2612 14.3431Z" fill="#333333"/>
</g>
<defs>
<clipPath id="clip0_64_42098">
<rect width="16" height="16" fill="white"/>
</clipPath>
</defs>
</svg>
