<svg width="24" height="25" viewBox="0 0 24 25" fill="none" xmlns="http://www.w3.org/2000/svg">
<path d="M1.125 15.5V13.625H22.875V15.5L12 23.375L1.125 15.5Z" fill="#81C784"/>
<path d="M16.9688 17.9C15.6406 16.6018 13.8572 15.875 12 15.875C10.1428 15.875 8.35938 16.6018 7.03125 17.9L1.125 13.625V15.5L12 23.375L22.875 15.5V13.625L16.9688 17.9ZM12 21.5L8.265 18.7963C9.29375 17.8808 10.6229 17.375 12 17.375C13.3771 17.375 14.7063 17.8808 15.735 18.7963L12 21.5Z" fill="#EEEEEE"/>
<path d="M18.1875 3.12497C17.4822 3.13532 16.7816 3.00794 16.125 2.74997C15.4684 2.49201 14.7678 2.36463 14.0625 2.37497C13.3572 2.36463 12.6566 2.49201 12 2.74997V8.74997C12.6566 8.49201 13.3572 8.36463 14.0625 8.37497C14.7678 8.36463 15.4684 8.49201 16.125 8.74997C17.4545 9.24997 18.9205 9.24997 20.25 8.74997V2.74997C19.5934 3.00794 18.8928 3.13532 18.1875 3.12497Z" fill="#FFB74D"/>
<path d="M18.375 3.12125V6.70644C18.3752 6.86903 18.3401 7.02973 18.2721 7.17744C18.2042 7.32516 18.105 7.45637 17.9814 7.56202C17.8578 7.66767 17.7127 7.74526 17.5563 7.78941C17.3998 7.83357 17.2356 7.84325 17.075 7.81779C16.7549 7.77178 16.4377 7.70742 16.125 7.625C15.4724 7.35326 14.769 7.22536 14.0625 7.25C13.3572 7.23965 12.6566 7.36703 12 7.625V8.75C12.6566 8.49203 13.3572 8.36465 14.0625 8.375C14.7678 8.36465 15.4684 8.49203 16.125 8.75C17.4545 9.25 18.9205 9.25 20.25 8.75V2.75C19.6526 2.98602 19.0173 3.1118 18.375 3.12125Z" fill="#FFA726"/>
<path d="M14.0625 5.37497C14.7678 5.36463 15.4684 5.49201 16.125 5.74997V8.74997C15.4684 8.49201 14.7678 8.36463 14.0625 8.37497C13.3572 8.36463 12.6566 8.49201 12 8.74997V5.74997C12.6566 5.49201 13.3572 5.36463 14.0625 5.37497Z" fill="#EF5350"/>
<path d="M20.25 2.75V5.75C18.9205 6.25 17.4545 6.25 16.125 5.75V2.75C16.7816 3.00797 17.4822 3.13535 18.1875 3.125C18.8928 3.13535 19.5934 3.00797 20.25 2.75Z" fill="#EF5350"/>
<path d="M14.0625 7.25006C13.3572 7.23971 12.6566 7.36709 12 7.62506V8.75006C12.6566 8.49209 13.3572 8.36471 14.0625 8.37506C14.7678 8.36471 15.4684 8.49209 16.125 8.75006V7.62506C15.4724 7.35332 14.769 7.22542 14.0625 7.25006Z" fill="#E53935"/>
<path d="M18.375 6.11821C19.0168 6.10725 19.6517 5.98259 20.25 5.75V2.75C19.6526 2.98602 19.0173 3.1118 18.375 3.12125V6.11821Z" fill="#E53935"/>
<path d="M12.375 2V21.23L12 21.5L11.625 21.23V2C11.625 1.90054 11.6645 1.80516 11.7348 1.73483C11.8052 1.66451 11.9005 1.625 12 1.625C12.0995 1.625 12.1948 1.66451 12.2652 1.73483C12.3355 1.80516 12.375 1.90054 12.375 2Z" fill="#757575"/>
</svg>
