<svg width="16" height="16" viewBox="0 0 16 16" fill="none" xmlns="http://www.w3.org/2000/svg">
<path d="M3.75 0.75C3.88261 0.75 4.00979 0.802678 4.10355 0.896447C4.19732 0.990215 4.25 1.11739 4.25 1.25V9.75H3.25V1.25C3.25 1.11739 3.30268 0.990215 3.39645 0.896447C3.49021 0.802678 3.61739 0.75 3.75 0.75Z" fill="#EEEEEE"/>
<path d="M3.75 0.75C3.66198 0.750479 3.57569 0.774418 3.5 0.81935C3.57581 0.862867 3.63882 0.925576 3.68271 1.00117C3.7266 1.07677 3.7498 1.16259 3.75 1.25V9.75H4.25V1.25C4.25 1.11739 4.19732 0.990215 4.10355 0.896447C4.00979 0.802678 3.88261 0.75 3.75 0.75Z" fill="#E0E0E0"/>
<path d="M3.25 9.75H4.25C4.38261 9.75 4.50979 9.80268 4.60355 9.89645C4.69732 9.99021 4.75 10.1174 4.75 10.25V14.25C4.75 14.5152 4.64464 14.7696 4.45711 14.9571C4.26957 15.1446 4.01522 15.25 3.75 15.25C3.48478 15.25 3.23043 15.1446 3.04289 14.9571C2.85536 14.7696 2.75 14.5152 2.75 14.25V10.25C2.75 10.1174 2.80268 9.99021 2.89645 9.89645C2.99021 9.80268 3.11739 9.75 3.25 9.75Z" fill="#757575"/>
<path d="M4.75 10.25V14.25C4.75025 14.4256 4.70418 14.5982 4.61644 14.7503C4.5287 14.9024 4.40239 15.0287 4.25026 15.1165C4.09812 15.2042 3.92555 15.2503 3.74993 15.25C3.57432 15.2497 3.40187 15.2032 3.25 15.115C3.40221 15.0277 3.52863 14.9017 3.61644 14.7498C3.70425 14.5979 3.75033 14.4255 3.75 14.25V10.25C3.74961 10.1175 3.69681 9.99056 3.60312 9.89688C3.50944 9.80319 3.38249 9.75039 3.25 9.75H4.25C4.38249 9.75039 4.50944 9.80319 4.60312 9.89688C4.69681 9.99056 4.74961 10.1175 4.75 10.25Z" fill="#616161"/>
<path d="M11 2.25C10.2233 2.24201 9.45694 2.0717 8.75 1.75C8.04306 1.4283 7.27666 1.25799 6.5 1.25C5.72334 1.25799 4.95694 1.4283 4.25 1.75V8.75C4.95694 8.4283 5.72334 8.25799 6.5 8.25C7.27666 8.25799 8.04306 8.4283 8.75 8.75C9.45694 9.0717 10.2233 9.24201 11 9.25C11.7767 9.24201 12.5431 9.0717 13.25 8.75V1.75C12.5431 2.0717 11.7767 2.24201 11 2.25Z" fill="#FFB74D"/>
<path d="M12 2.15V7.48765C12.002 7.75275 11.8991 8.00789 11.7138 8.1975C11.5286 8.38711 11.2759 8.49584 11.0108 8.5H11C10.2233 8.49201 9.45694 8.3217 8.75 8C8.04306 7.6783 7.27666 7.50799 6.5 7.5C5.72334 7.50799 4.95694 7.6783 4.25 8V8.75C4.95694 8.4283 5.72334 8.25799 6.5 8.25C7.27666 8.25799 8.04306 8.4283 8.75 8.75C9.45694 9.0717 10.2233 9.24201 11 9.25C11.7767 9.24201 12.5431 9.0717 13.25 8.75V1.75C12.8509 1.93294 12.4312 2.06724 12 2.15Z" fill="#FFA726"/>
<path d="M6.5 4.75C7.27666 4.75799 8.04306 4.9283 8.75 5.25V8.75C8.04306 8.4283 7.27666 8.25799 6.5 8.25C5.72334 8.25799 4.95694 8.4283 4.25 8.75V5.25C4.95694 4.9283 5.72334 4.75799 6.5 4.75Z" fill="#EF5350"/>
<path d="M13.25 1.75V5.25C12.5431 5.5717 11.7767 5.74201 11 5.75C10.2233 5.74201 9.45694 5.5717 8.75 5.25V1.75C9.45694 2.0717 10.2233 2.24201 11 2.25C11.7767 2.24201 12.5431 2.0717 13.25 1.75Z" fill="#EF5350"/>
<path d="M12 5.6486C12.4312 5.56666 12.8509 5.43282 13.25 5.25V1.75C12.8509 1.93294 12.4312 2.06724 12 2.15V5.6486Z" fill="#E53935"/>
<path d="M6.5 7.5C5.72334 7.50799 4.95694 7.6783 4.25 8V8.75C4.95694 8.4283 5.72334 8.25799 6.5 8.25C7.27666 8.25799 8.04306 8.4283 8.75 8.75V8C8.04306 7.6783 7.27666 7.50799 6.5 7.5Z" fill="#E53935"/>
</svg>
