<svg width="16" height="16" viewBox="0 0 16 16" fill="none" xmlns="http://www.w3.org/2000/svg">
<path d="M14.1667 3.33337H1.66669C1.1144 3.33337 0.666687 3.78109 0.666687 4.33337V11.8334C0.666687 12.3857 1.1144 12.8334 1.66669 12.8334H14.1667C14.719 12.8334 15.1667 12.3857 15.1667 11.8334V4.33337C15.1667 3.78109 14.719 3.33337 14.1667 3.33337Z" fill="#30AF4A"/>
<path d="M14.1667 3.33337H12.9167C13.1819 3.33337 13.4363 3.43873 13.6238 3.62627C13.8113 3.8138 13.9167 4.06816 13.9167 4.33337V11.0834C13.9167 11.3486 13.8113 11.6029 13.6238 11.7905C13.4363 11.978 13.1819 12.0834 12.9167 12.0834H1.66669C1.40147 12.0834 1.14712 11.978 0.95958 11.7905C0.772044 11.6029 0.666687 11.3486 0.666687 11.0834V11.8334C0.666687 12.0986 0.772044 12.3529 0.95958 12.5405C1.14712 12.728 1.40147 12.8334 1.66669 12.8334H14.1667C14.4319 12.8334 14.6863 12.728 14.8738 12.5405C15.0613 12.3529 15.1667 12.0986 15.1667 11.8334V4.33337C15.1667 4.06816 15.0613 3.8138 14.8738 3.62627C14.6863 3.43873 14.4319 3.33337 14.1667 3.33337Z" fill="#30AF4A"/>
<path d="M13.9167 6.58337H15.1667V7.08337H14.1667V9.08337H15.1667V9.58337H13.9167C13.8504 9.58337 13.7868 9.55703 13.7399 9.51015C13.693 9.46327 13.6667 9.39968 13.6667 9.33337V6.83337C13.6667 6.76707 13.693 6.70348 13.7399 6.6566C13.7868 6.60971 13.8504 6.58337 13.9167 6.58337ZM12.6667 5.33337H15.1667V5.83337H12.9167V10.3334H15.1667V10.8334H12.6667C12.6004 10.8334 12.5368 10.807 12.4899 10.7602C12.443 10.7133 12.4167 10.6497 12.4167 10.5834V9.56087C12.0672 9.50227 11.7498 9.32167 11.5208 9.05117C11.2919 8.78066 11.1663 8.43775 11.1663 8.08337C11.1663 7.729 11.2919 7.38609 11.5208 7.11558C11.7498 6.84507 12.0672 6.66447 12.4167 6.60587V5.58337C12.4167 5.51707 12.443 5.45348 12.4899 5.4066C12.5368 5.35971 12.6004 5.33337 12.6667 5.33337ZM12.4167 7.115C12.202 7.17046 12.0119 7.29567 11.8761 7.47096C11.7404 7.64624 11.6667 7.86167 11.6667 8.08337C11.6667 8.30508 11.7404 8.5205 11.8761 8.69579C12.0119 8.87108 12.202 8.99629 12.4167 9.05175V7.115ZM7.66669 12.8334V10.066C7.18358 10.0054 6.73921 9.77058 6.41705 9.40552C6.09489 9.04045 5.91711 8.57032 5.91711 8.08344C5.91711 7.59655 6.09489 7.12642 6.41705 6.76136C6.73921 6.39629 7.18358 6.16143 7.66669 6.10087V3.33337H8.16669V6.10087C8.64989 6.16132 9.09439 6.39614 9.41666 6.76123C9.73892 7.12632 9.91677 7.59653 9.91677 8.0835C9.91677 8.57047 9.73892 9.04068 9.41666 9.40577C9.09439 9.77085 8.64989 10.0057 8.16669 10.0661V12.8334H7.66669ZM8.16669 9.56087C8.51619 9.50227 8.8336 9.32167 9.06252 9.05117C9.29145 8.78066 9.41708 8.43775 9.41708 8.08337C9.41708 7.729 9.29145 7.38609 9.06252 7.11558C8.8336 6.84507 8.51619 6.66447 8.16669 6.60587V9.56087ZM7.66669 9.56087V6.60587C7.31719 6.66447 6.99978 6.84507 6.77085 7.11558C6.54192 7.38609 6.4163 7.729 6.4163 8.08337C6.4163 8.43775 6.54192 8.78066 6.77085 9.05117C6.99978 9.32167 7.31719 9.50227 7.66669 9.56087ZM2.16669 9.33337V6.83337C2.16669 6.76707 2.14035 6.70348 2.09346 6.6566C2.04658 6.60971 1.98299 6.58337 1.91669 6.58337H0.666687V7.08337H1.66669V9.08337H0.666687V9.58337H1.91669C1.98299 9.58337 2.04658 9.55703 2.09346 9.51015C2.14035 9.46327 2.16669 9.39968 2.16669 9.33337ZM3.16669 10.8334H0.666687V10.3334H2.91669V5.83337H0.666687V5.33337H3.16669C3.23299 5.33337 3.29658 5.35971 3.34346 5.4066C3.39035 5.45348 3.41669 5.51707 3.41669 5.58337V6.60587C3.76619 6.66447 4.0836 6.84507 4.31253 7.11558C4.54145 7.38609 4.66708 7.729 4.66708 8.08337C4.66708 8.43775 4.54145 8.78066 4.31253 9.05117C4.0836 9.32167 3.76619 9.50227 3.41669 9.56087V10.5834C3.41669 10.6497 3.39035 10.7133 3.34346 10.7602C3.29658 10.807 3.23299 10.8334 3.16669 10.8334ZM3.41669 9.05175C3.63135 8.99629 3.82149 8.87108 3.95724 8.69579C4.093 8.5205 4.16666 8.30508 4.16666 8.08337C4.16666 7.86167 4.093 7.64624 3.95724 7.47096C3.82149 7.29567 3.63135 7.17046 3.41669 7.115V9.05175Z" fill="#EEEEEE"/>
<path d="M7.66669 12.0834H8.16669V12.8334H7.66669V12.0834Z" fill="#E0E0E0"/>
<path d="M13.9167 10.3334H15.1667V10.8334H13.9167V10.3334Z" fill="#E0E0E0"/>
<path d="M13.9167 9.58337H15.1667V9.08337H14.1667V7.08337H15.1667V6.58337H13.9167V9.58337Z" fill="#E0E0E0"/>
<path d="M13.9167 5.33337H15.1667V5.83337H13.9167V5.33337Z" fill="#E0E0E0"/>
</svg>
